<svg width="605" height="650" viewBox="0 0 605 650" fill="none" xmlns="http://www.w3.org/2000/svg">
<path fill-rule="evenodd" clip-rule="evenodd" d="M299.806 81.6103C300.186 126.825 300.711 182.11 300.972 204.467C301.235 226.824 301.688 272.33 301.982 305.593C302.274 338.855 302.755 378.116 303.051 392.838C303.347 407.561 304.037 471.107 304.586 534.052C305.134 596.996 305.793 648.701 306.05 648.952C306.307 649.202 311.908 648.448 318.498 647.278C325.086 646.106 335.056 644.455 340.653 643.607C346.25 642.761 352.66 641.669 354.899 641.182C357.138 640.695 364.121 639.537 370.417 638.609L381.864 636.92V489.409C381.864 408.277 382.208 341.705 382.628 341.473C383.047 341.239 388.609 342.984 394.986 345.352C401.363 347.72 409.147 350.537 412.285 351.614C415.422 352.69 423.025 355.406 429.181 357.651C435.337 359.894 444.038 362.988 448.515 364.523C452.992 366.06 457.8 367.802 459.199 368.395C460.599 368.988 466.093 371.003 471.41 372.875C492.245 380.207 520.888 390.471 523.279 391.46C524.664 392.033 530.846 394.273 537.017 396.436C552.811 401.974 552.49 401.807 553.078 404.802C553.37 406.291 553.655 416.923 553.711 428.43C553.895 466.436 556.159 611.935 556.573 612.402C556.796 612.655 561.651 612.104 567.362 611.179C573.073 610.254 583.338 608.746 590.174 607.828C597.009 606.909 603.03 605.897 603.555 605.581C604.668 604.907 605.616 209.92 604.502 209.92C603.5 209 603 209 601.242 207.441C599.5 206 598.184 205.217 596.5 204C595.86 203.537 594.753 202.753 593.5 201.5C592 200 591 199.5 588.898 198.023C588.604 198.023 581.945 193.326 574.1 187.585C566.254 181.845 559.412 177.402 558.896 177.713C558.354 178.04 557.911 194.238 557.846 216.158C557.757 246.581 556.52 317.383 555.987 322.63C555.873 323.761 551.227 321.871 529.411 311.825C524.654 309.635 511.833 303.835 500.919 298.937C490.006 294.04 471.919 285.895 460.726 280.839C449.532 275.781 429.156 266.603 415.444 260.442C401.732 254.281 388.682 248.245 386.444 247.027L382.373 244.814L381.864 147.43L381.356 50.0462L357.952 35.3274C345.079 27.2324 333.861 20.3003 333.021 19.9226C332.182 19.5449 329.663 18.031 327.425 16.5577C317.273 9.87548 302.351 0.612566 300.81 0.0365467C299.233 -0.553353 299.164 5.13447 299.806 81.6103ZM421.53 94.1707C421.491 102.622 423.682 192.936 424.233 205.601L424.8 218.633L440.219 226.104C490.003 250.223 511.668 260.321 512.301 259.699C512.695 259.312 513.477 236.019 514.04 207.937L515.064 156.878L512.316 154.646C510.014 152.775 480.378 131.274 472.593 125.826C471.283 124.911 468.307 122.774 465.978 121.08C463.649 119.386 455.333 113.4 447.497 107.78C439.662 102.16 430.919 95.8501 428.07 93.7592C425.22 91.6683 422.586 89.9571 422.219 89.9571C421.851 89.9571 421.54 91.8537 421.53 94.1707ZM420.077 492.725C419.693 527.215 419.524 572.386 419.701 593.107C420.017 630.098 420.06 630.777 422.058 630.569C423.178 630.453 430.221 629.875 437.71 629.286C445.2 628.697 455.731 627.555 461.114 626.75C466.497 625.944 474.107 624.823 478.024 624.259C481.942 623.693 490.184 622.477 496.34 621.554L507.534 619.875L508.217 594.594C508.593 580.689 509.411 549.013 510.035 524.203C510.66 499.392 511.45 473.239 511.793 466.085L512.416 453.078L507.431 451.496C504.689 450.627 497.867 448.82 492.27 447.482C486.674 446.145 468.455 441.667 451.784 437.533C435.114 433.4 421.317 430.017 421.125 430.017C420.934 430.017 420.462 458.235 420.077 492.725Z" fill="url(#paint0_linear_289_124)"/>
<g filter="url(#filter0_di_289_124)">
<path d="M244.125 21.4099C245.326 20.4477 250.241 16.8179 255.047 13.3424C259.853 9.86785 264.4 7.01358 265.151 7.00003C266.221 6.98023 266.516 15.9996 266.516 48.6921V90.408L240.575 106.692C226.308 115.648 207.752 127.296 199.342 132.575C190.932 137.855 176.923 146.629 168.213 152.071C138.465 170.662 119.611 182.464 98.8539 195.491C87.4398 202.655 71.1137 212.878 62.5722 218.209L47.0447 227.903L47.6825 338.7C48.0343 399.639 48.6318 474.126 49.0119 504.227L49.7021 558.956L111.961 559.599C146.203 559.953 191.177 560.404 211.903 560.601C232.629 560.798 253.954 561.13 259.293 561.341L269 561.724L268.326 573.891C267.956 580.584 267.324 598.646 266.925 614.03L266.195 642L259.529 641.356C255.862 641 248.685 640.282 243.579 639.758C238.472 639.233 227.659 638.291 219.549 637.662C200.527 636.189 186.276 635.008 163.297 633.001C153.085 632.109 139.832 630.969 133.848 630.467C127.645 629.948 124.758 629.47 122.612 629.47C121.001 629.47 121.001 629.47 116.708 628.944C115.098 628.747 114.024 628.944 110.629 628.538C108.358 627.911 98.1439 626.879 87.9313 626.243C77.7186 625.607 63.9561 624.647 57.348 624.108C28.9841 621.799 18.9429 620.897 15.1375 620.316L11.0895 619.698L10.4506 612.261C10.0989 608.17 9.3201 571.283 8.71936 530.288C8.11971 489.294 7.11153 421.508 6.47911 379.653C5.84669 337.799 4.95872 278.926 4.50652 248.825C4.05433 218.724 3.86969 193.627 4.09797 193.054C4.32516 192.48 16.7978 183.333 31.8153 172.726C46.8328 162.119 60.1955 152.637 61.5106 151.658C79.8409 137.992 175.534 70.5649 176.599 70.5649C177.393 70.5649 178.043 70.1427 178.043 69.6277C178.043 68.8334 184.825 63.7451 200.888 52.4876C206.283 48.7056 221.153 37.7744 221.733 37.1635C222.034 36.8466 226.703 33.566 232.11 29.8736C237.517 26.1813 242.923 22.3721 244.125 21.4099Z" fill="url(#paint1_linear_289_124)"/>
<path d="M176.405 201.386C197.431 189.446 225.447 173.482 238.663 165.913C251.88 158.343 262.939 152.277 263.239 152.434C263.54 152.592 263.66 232.982 263.506 331.079L263.227 509.439H257.556C254.438 509.439 246.453 509.881 239.814 510.422C233.174 510.963 220.122 511.898 210.811 512.501C201.499 513.103 183.313 514.304 170.397 515.17C135.14 517.532 115.972 518.739 108.684 519.057L102.131 519.343L101.52 492.76C101.184 478.139 100.819 442.487 100.709 413.533C100.598 384.579 100.197 334.854 99.8162 303.033L99.1248 245.176L104.923 242.049C113.243 237.56 117.492 235.162 128.455 228.765C133.802 225.646 155.378 213.325 176.405 201.386Z" fill="url(#paint2_linear_289_124)"/>
</g>
<path d="M244.125 15.7049C245.326 14.723 250.241 11.0189 255.047 7.4722C259.853 3.92656 264.4 1.01386 265.151 1.00003C266.221 0.979821 266.516 10.1838 266.516 43.5456V86.1156L240.575 102.733C226.308 111.872 207.752 123.759 199.342 129.146C190.932 134.534 176.923 143.487 168.213 149.041C138.465 168.012 119.611 180.056 98.8539 193.35C87.4398 200.66 71.1137 211.093 62.5722 216.533L47.0447 226.425L47.6825 339.491C48.0343 401.678 48.6318 477.689 49.0119 508.406L49.7021 564.256L111.961 564.912C146.203 565.274 191.177 565.733 211.903 565.934C232.629 566.135 253.954 566.475 259.293 566.69L269 567.08L268.326 579.497C267.956 586.326 267.324 604.759 266.925 620.457L266.195 649L259.529 648.343C255.862 647.98 248.685 647.247 243.579 646.712C238.472 646.177 227.659 645.215 219.549 644.574C200.527 643.07 186.276 641.865 163.297 639.816C153.085 638.907 139.832 637.743 133.848 637.231C127.645 636.701 124.758 636.214 122.612 636.214C121.001 636.214 121.001 636.214 116.708 635.677C115.098 635.476 114.024 635.677 110.629 635.262C108.358 634.623 98.1439 633.57 87.9313 632.921C77.7186 632.272 63.9561 631.292 57.348 630.742C28.9841 628.386 18.9429 627.465 15.1375 626.872L11.0895 626.241L10.4506 618.652C10.0989 614.478 9.3201 576.835 8.71936 535.001C8.11971 493.167 7.11153 423.994 6.47911 381.282C5.84669 338.571 4.95872 278.493 4.50652 247.776C4.05433 217.059 3.86969 191.448 4.09797 190.863C4.32516 190.277 16.7978 180.943 31.8153 170.118C46.8328 159.294 60.1955 149.619 61.5106 148.619C79.8409 134.674 175.534 65.8662 176.599 65.8662C177.393 65.8662 178.043 65.4354 178.043 64.9099C178.043 64.0993 184.825 58.9068 200.888 47.4189C206.283 43.5594 221.153 32.4045 221.733 31.7811C222.034 31.4577 226.703 28.1099 232.11 24.3419C237.517 20.5739 242.923 16.6868 244.125 15.7049Z" fill="url(#paint3_linear_289_124)"/>
<path d="M176.405 199.365C197.431 187.181 225.447 170.891 238.663 163.167C251.88 155.441 262.939 149.251 263.239 149.412C263.54 149.572 263.66 231.608 263.506 331.714L263.227 513.725H257.556C254.438 513.725 246.453 514.176 239.814 514.728C233.174 515.281 220.122 516.235 210.811 516.85C201.499 517.465 183.313 518.69 170.397 519.573C135.14 521.984 115.972 523.215 108.684 523.54L102.131 523.831L101.52 496.705C101.184 481.785 100.819 445.403 100.709 415.856C100.598 386.309 100.197 335.566 99.8162 303.093L99.1248 244.052L104.923 240.861C113.243 236.28 117.492 233.833 128.455 227.305C133.802 224.122 155.378 211.549 176.405 199.365Z" fill="url(#paint4_linear_289_124)"/>
<defs>
<filter id="filter0_di_289_124" x="0" y="7" width="273" height="643" filterUnits="userSpaceOnUse" color-interpolation-filters="sRGB">
<feFlood flood-opacity="0" result="BackgroundImageFix"/>
<feColorMatrix in="SourceAlpha" type="matrix" values="0 0 0 0 0 0 0 0 0 0 0 0 0 0 0 0 0 0 127 0" result="hardAlpha"/>
<feOffset dy="4"/>
<feGaussianBlur stdDeviation="2"/>
<feComposite in2="hardAlpha" operator="out"/>
<feColorMatrix type="matrix" values="0 0 0 0 0 0 0 0 0 0 0 0 0 0 0 0 0 0 0.25 0"/>
<feBlend mode="normal" in2="BackgroundImageFix" result="effect1_dropShadow_289_124"/>
<feBlend mode="normal" in="SourceGraphic" in2="effect1_dropShadow_289_124" result="shape"/>
<feColorMatrix in="SourceAlpha" type="matrix" values="0 0 0 0 0 0 0 0 0 0 0 0 0 0 0 0 0 0 127 0" result="hardAlpha"/>
<feOffset dy="3"/>
<feGaussianBlur stdDeviation="1"/>
<feComposite in2="hardAlpha" operator="arithmetic" k2="-1" k3="1"/>
<feColorMatrix type="matrix" values="0 0 0 0 0.901961 0 0 0 0 0.792157 0 0 0 0 0.392157 0 0 0 1 0"/>
<feBlend mode="normal" in2="shape" result="effect2_innerShadow_289_124"/>
</filter>
<linearGradient id="paint0_linear_289_124" x1="304.002" y1="620.5" x2="789.899" y2="338.156" gradientUnits="userSpaceOnUse">
<stop stop-color="#EFD973"/>
<stop offset="0.346875" stop-color="#E6C356"/>
<stop offset="0.695833" stop-color="#E6CC6A"/>
<stop offset="1" stop-color="#C09848"/>
</linearGradient>
<linearGradient id="paint1_linear_289_124" x1="7.96838" y1="614.115" x2="453.457" y2="384.674" gradientUnits="userSpaceOnUse">
<stop stop-color="#EFD973"/>
<stop offset="0.346875" stop-color="#E6C356"/>
<stop offset="0.695833" stop-color="#E6CC6A"/>
<stop offset="1" stop-color="#C09848"/>
</linearGradient>
<linearGradient id="paint2_linear_289_124" x1="7.96838" y1="614.115" x2="453.457" y2="384.674" gradientUnits="userSpaceOnUse">
<stop stop-color="#EFD973"/>
<stop offset="0.346875" stop-color="#E6C356"/>
<stop offset="0.695833" stop-color="#E6CC6A"/>
<stop offset="1" stop-color="#C09848"/>
</linearGradient>
<linearGradient id="paint3_linear_289_124" x1="7.96838" y1="620.544" x2="457.198" y2="393.818" gradientUnits="userSpaceOnUse">
<stop stop-color="#EFD973"/>
<stop offset="0.346875" stop-color="#E6C356"/>
<stop offset="0.695833" stop-color="#E6CC6A"/>
<stop offset="1" stop-color="#C09848"/>
</linearGradient>
<linearGradient id="paint4_linear_289_124" x1="7.96838" y1="620.544" x2="457.198" y2="393.818" gradientUnits="userSpaceOnUse">
<stop stop-color="#EFD973"/>
<stop offset="0.346875" stop-color="#E6C356"/>
<stop offset="0.695833" stop-color="#E6CC6A"/>
<stop offset="1" stop-color="#C09848"/>
</linearGradient>
</defs>
</svg>
